<svg width="32" height="32" viewBox="0 0 32 32" fill="none" xmlns="http://www.w3.org/2000/svg">
<path opacity="0.15" d="M9.88672 30.5464C9.88672 30.6497 10.0493 30.752 10.3653 30.8475C10.6812 30.9429 11.1443 31.0296 11.728 31.1027C12.3118 31.1757 13.0048 31.2337 13.7676 31.2732C14.5303 31.3128 15.3478 31.3331 16.1734 31.3331C16.999 31.3331 17.8165 31.3128 18.5792 31.2732C19.3419 31.2337 20.035 31.1757 20.6187 31.1027C21.2025 31.0296 21.6656 30.9429 21.9815 30.8475C22.2974 30.752 22.4601 30.6497 22.4601 30.5464C22.4601 30.3378 21.7977 30.1377 20.6187 29.9902C19.4398 29.8426 17.8407 29.7598 16.1734 29.7598C14.5061 29.7598 12.907 29.8426 11.728 29.9902C10.5491 30.1377 9.88672 30.3378 9.88672 30.5464Z" fill="#4B4B4B"/>
<path d="M21.0867 29.4266C21.1173 29.5327 21.1253 29.6441 21.1101 29.7535C21.0949 29.8629 21.0568 29.9679 20.9983 30.0616C20.9398 30.1553 20.8622 30.2356 20.7706 30.2974C20.679 30.3591 20.5755 30.4009 20.4667 30.4199C20.0254 30.4845 19.5787 30.5046 19.1333 30.4799C18.1237 30.4427 17.1371 30.1672 16.2543 29.676C15.3714 29.1847 14.6172 28.4916 14.0533 27.6533C11.2933 23.3066 13.8 17.8599 13.9067 17.6533C13.9951 17.4641 14.155 17.3178 14.3513 17.2465C14.5476 17.1752 14.7642 17.1849 14.9533 17.2733C15.1425 17.3617 15.2888 17.5216 15.3601 17.7179C15.4314 17.9142 15.4217 18.1307 15.3333 18.3199C15.3333 18.3733 13.0867 23.2266 15.38 26.8333C15.9091 27.6012 16.6458 28.2027 17.504 28.5674C18.3623 28.9322 19.3066 29.0452 20.2267 28.8933C20.4163 28.8645 20.6099 28.9054 20.7716 29.0083C20.9334 29.1113 21.0524 29.2693 21.1067 29.4533L21.0867 29.4266Z" fill="#6DD627"/>
<path d="M15.3334 18.2936C14.7039 19.7701 14.3688 21.3553 14.3467 22.9602C14.3481 23.4065 14.3815 23.8521 14.4467 24.2936H12.8334C12.5996 22.0176 12.9626 19.7199 13.8867 17.6269C13.9305 17.5332 13.9923 17.4491 14.0686 17.3793C14.1448 17.3095 14.2341 17.2554 14.3313 17.2201C14.4285 17.1848 14.5317 17.169 14.635 17.1736C14.7383 17.1782 14.8397 17.2031 14.9334 17.2469C15.027 17.2907 15.1112 17.3525 15.181 17.4288C15.2508 17.505 15.3048 17.5943 15.3401 17.6915C15.3754 17.7887 15.3912 17.8919 15.3866 17.9952C15.382 18.0985 15.3571 18.1999 15.3134 18.2936H15.3334Z" fill="#46B000"/>
<path d="M15.3334 18.2933C15.3334 18.3466 13.0867 23.1999 15.38 26.8066C15.9091 27.5745 16.6458 28.176 17.5041 28.5408C18.3623 28.9056 19.3066 29.0186 20.2267 28.8666C20.4327 28.8321 20.6439 28.8809 20.814 29.0021C20.984 29.1234 21.0989 29.3073 21.1334 29.5133C21.1678 29.7192 21.1191 29.9305 20.9978 30.1005C20.8765 30.2706 20.6927 30.3854 20.4867 30.4199C20.0454 30.4845 19.5987 30.5046 19.1534 30.4799C18.1437 30.4427 17.1572 30.1672 16.2743 29.676C15.3914 29.1847 14.6372 28.4916 14.0734 27.6533C11.3134 23.3066 13.82 17.8599 13.9267 17.6533C13.9705 17.5596 14.0323 17.4754 14.1086 17.4057C14.1848 17.3359 14.2741 17.2818 14.3713 17.2465C14.4685 17.2112 14.5717 17.1954 14.675 17.2C14.7783 17.2046 14.8797 17.2295 14.9734 17.2733C15.067 17.317 15.1512 17.3788 15.221 17.4551C15.2908 17.5314 15.3448 17.6207 15.3801 17.7179C15.4154 17.8151 15.4312 17.9183 15.4266 18.0216C15.422 18.1249 15.3971 18.2262 15.3534 18.3199L15.3334 18.2933Z" stroke="#4B4B4B" stroke-width="0.5"/>
<path d="M20.3533 19.6266C20.3224 19.0837 20.1575 18.5569 19.8733 18.0933C20.1521 18.5625 20.544 18.9545 21.0133 19.2333C23.4467 20.6733 26.1933 17.7666 24.8267 15.2933L24.24 14.2399C24.191 14.1495 24.1776 14.044 24.2022 13.9441C24.2269 13.8443 24.2879 13.7572 24.3733 13.6999L25.38 13.0333C27.7467 11.4799 26.6667 7.63326 23.84 7.77326C23.2946 7.80201 22.7651 7.96704 22.3 8.25326C22.7693 7.97447 23.1612 7.58253 23.44 7.11326C24.88 4.66659 22 1.93993 19.5067 3.33326L18.4533 3.91993C18.3621 3.96824 18.2561 3.98067 18.1561 3.95476C18.0562 3.92885 17.9696 3.86648 17.9133 3.77993L17.2467 2.77993C15.7 0.386592 11.8533 1.46659 12 4.29326C12.027 4.83687 12.1922 5.36462 12.48 5.82659C12.1976 5.35261 11.804 4.95449 11.3333 4.66659C8.89999 3.22659 6.15332 6.13326 7.51999 8.60659L8.10666 9.65993C8.15498 9.75116 8.1674 9.85717 8.14149 9.95711C8.11558 10.057 8.05322 10.1437 7.96666 10.1999L6.96666 10.8666C4.59999 12.4199 5.67999 16.2666 8.50666 16.1266C9.04956 16.0956 9.57635 15.9307 10.04 15.6466C9.57152 15.9235 9.17966 16.3131 8.89999 16.7799C7.45999 19.2199 10.36 21.9666 12.84 20.5999L13.8933 19.9999C13.9838 19.951 14.0892 19.9375 14.1891 19.9622C14.289 19.9868 14.376 20.0478 14.4333 20.1333L15.1 21.1399C16.6667 23.5333 20.4933 22.4533 20.3533 19.6266Z" fill="#6DD627"/>
<path d="M12.4733 5.82659C12.1928 5.35339 11.8016 4.95534 11.3333 4.66659C8.9 3.22659 6.15334 6.13326 7.52 8.60659L8.10667 9.65992C7.19334 5.83993 11.52 4.25326 13.3333 7.25993L12.4733 5.82659ZM17.2533 5.17993L17.92 6.18659C17.9773 6.27202 18.0644 6.33302 18.1642 6.35768C18.2641 6.38233 18.3695 6.36887 18.46 6.31992L19.5133 5.73326C19.8568 5.54917 20.2334 5.43519 20.6213 5.39795C21.0092 5.36071 21.4006 5.40095 21.7728 5.51633C22.145 5.63171 22.4905 5.81993 22.7893 6.07005C23.0881 6.32016 23.3342 6.62718 23.5133 6.97326C24.76 4.57993 21.9333 1.99993 19.5067 3.33326L18.4533 3.91993C18.3621 3.96824 18.2561 3.98067 18.1562 3.95476C18.0562 3.92885 17.9696 3.86648 17.9133 3.77993L17.2467 2.77993C15.7 0.386593 11.8533 1.46659 12 4.29326C12.0227 4.67717 12.1129 5.05407 12.2667 5.40659C12.5086 4.96796 12.859 4.59877 13.2845 4.33435C13.7099 4.06992 14.1961 3.91912 14.6965 3.89637C15.1969 3.87363 15.6948 3.9797 16.1425 4.20444C16.5901 4.42917 16.9726 4.76505 17.2533 5.17993ZM6.96667 13.3333L8.00001 12.6666C8.08656 12.6103 8.14893 12.5237 8.17484 12.4238C8.20075 12.3238 8.18832 12.2178 8.14001 12.1266L7.55334 11.0733C7.47223 10.9421 7.39877 10.8063 7.33334 10.6666L6.96667 10.9133C6.38711 11.2957 5.96361 11.8731 5.77285 12.5407C5.58208 13.2084 5.63665 13.9223 5.92667 14.5533C6.14702 14.0539 6.50851 13.6299 6.96667 13.3333Z" fill="#9CEB60"/>
<path d="M19.8733 18.0933C20.1575 18.5569 20.3224 19.0837 20.3533 19.6266C20.4933 22.4533 16.6667 23.5333 15.1 21.1399L14.4333 20.1333C14.376 20.0478 14.289 19.9868 14.1891 19.9622C14.0892 19.9375 13.9838 19.951 13.8933 19.9999L12.84 20.5999C10.36 21.9666 7.45999 19.2199 8.89999 16.7799C9.17966 16.3131 9.57152 15.9235 10.04 15.6466C9.57635 15.9307 9.04956 16.0956 8.50666 16.1266C5.67999 16.2666 4.59999 12.4199 6.96666 10.8666L7.96666 10.1999C8.05322 10.1437 8.11558 10.057 8.14149 9.95711C8.1674 9.85717 8.15498 9.75116 8.10666 9.65993L7.51999 8.60659C6.15332 6.13326 8.89999 3.22659 11.3333 4.66659C11.804 4.95449 12.1976 5.35261 12.48 5.82659C12.1922 5.36462 12.027 4.83687 12 4.29326C11.8533 1.46659 15.7 0.386592 17.2467 2.77993L17.9133 3.77993C17.9696 3.86648 18.0562 3.92885 18.1561 3.95476C18.2561 3.98067 18.3621 3.96824 18.4533 3.91993L19.5067 3.33326C22 1.93993 24.88 4.66659 23.44 7.11326C23.1612 7.58253 22.7693 7.97447 22.3 8.25326C22.7651 7.96704 23.2946 7.80201 23.84 7.77326C26.6667 7.63326 27.7467 11.4799 25.38 13.0333L24.3733 13.6999C24.2879 13.7572 24.2269 13.8443 24.2022 13.9441C24.1776 14.044 24.191 14.1495 24.24 14.2399L24.8267 15.2933C26.1933 17.7666 23.4467 20.6733 21.0133 19.2333C20.544 18.9545 20.1521 18.5625 19.8733 18.0933ZM19.8733 18.0933L18.08 15.1199M12.4733 5.82659L14.2667 8.79993M19.3333 10.0533L22.3 8.25993M10.04 15.6599L13.0133 13.8666" stroke="#4B4B4B" stroke-width="0.5" stroke-linecap="round" stroke-linejoin="round"/>
</svg>
