<svg width="32" height="33" viewBox="0 0 32 33" fill="none" xmlns="http://www.w3.org/2000/svg">
<path d="M4.84936 5.07861L16.5027 16.5066L4.93602 28.0399C4.74679 27.7935 4.59989 27.5173 4.50136 27.2226C4.45039 26.889 4.45039 26.5496 4.50136 26.2159V6.58928C4.46669 6.06261 4.58802 5.53594 4.84802 5.07861M21.5227 11.5226L17.7187 15.2906L6.20402 3.96661C6.57736 3.83728 6.97736 3.80128 7.36802 3.86261C7.98136 4.03061 8.56669 4.28928 9.10402 4.62661L19.5254 10.3933C20.2027 10.7573 20.8627 11.1399 21.5227 11.5226ZM17.72 17.7399L21.5054 21.4573L18.7614 22.9853L10.3894 27.6386C9.69602 28.0213 9.00002 28.3866 8.32269 28.8039C8.03286 28.9844 7.70787 29.1009 7.36941 29.1457C7.03096 29.1906 6.68684 29.1627 6.36002 29.0639L17.72 17.7399ZM27.5334 16.5066C27.5431 16.9728 27.4253 17.4329 27.1926 17.837C26.96 18.2412 26.6214 18.5742 26.2134 18.7999L23.0854 20.5359L18.9694 16.5066L23.1027 12.4079C24.1627 12.9986 25.2054 13.5893 26.2467 14.1453C26.662 14.3774 27.0031 14.7223 27.2306 15.1402C27.458 15.5581 27.5639 16.0318 27.5334 16.5066Z" fill="white"/>
</svg>
