<svg width="32" height="33" viewBox="0 0 32 33" fill="none" xmlns="http://www.w3.org/2000/svg">
<path d="M24.9467 26.4998C23.84 28.1532 22.6667 29.7665 20.88 29.7932C19.0934 29.8332 18.52 28.7398 16.4934 28.7398C14.4534 28.7398 13.8267 29.7665 12.1334 29.8332C10.3867 29.8998 9.06671 28.0732 7.94671 26.4598C5.66671 23.1665 3.92004 17.0998 6.26671 13.0198C7.42671 10.9932 9.50671 9.71317 11.76 9.67317C13.4667 9.6465 15.0934 10.8332 16.1467 10.8332C17.1867 10.8332 19.16 9.4065 21.2267 9.61984C22.0934 9.65984 24.52 9.9665 26.08 12.2598C25.96 12.3398 23.1867 13.9665 23.2134 17.3398C23.2534 21.3665 26.7467 22.7132 26.7867 22.7265C26.7467 22.8198 26.2267 24.6465 24.9467 26.4998ZM17.3334 5.1665C18.3067 4.05984 19.92 3.21984 21.2534 3.1665C21.4267 4.7265 20.8 6.29984 19.8667 7.41984C18.9467 8.55317 17.4267 9.43317 15.9334 9.31317C15.7334 7.77984 16.48 6.17984 17.3334 5.1665Z" fill="white"/>
</svg>
